<svg xmlns="http://www.w3.org/2000/svg" viewBox="0 0 400 440">
  <defs>
    <radialGradient id="glow" cx="50%" cy="50%" r="50%">
      <stop offset="0%" stop-color="#f5c97d" stop-opacity="0.85"/>
      <stop offset="100%" stop-color="#e8a94f" stop-opacity="0"/>
    </radialGradient>
    <linearGradient id="metal" x1="0" y1="0" x2="1" y2="0">
      <stop offset="0%" stop-color="#241c10"/>
      <stop offset="50%" stop-color="#6b5227"/>
      <stop offset="100%" stop-color="#191309"/>
    </linearGradient>
    <linearGradient id="band" x1="0" y1="0" x2="1" y2="0">
      <stop offset="0%" stop-color="#e5b060"/>
      <stop offset="50%" stop-color="#fdeec7"/>
      <stop offset="100%" stop-color="#cf9c48"/>
    </linearGradient>
  </defs>
  <ellipse cx="200" cy="175" rx="150" ry="120" fill="url(#glow)" opacity="0.65"/>
  <rect x="170" y="120" width="60" height="270" rx="14" fill="url(#metal)"/>
  <rect x="164" y="104" width="72" height="24" rx="12" fill="url(#metal)"/>
  <rect x="176" y="146" width="48" height="52" rx="8" fill="url(#band)"/>
  <rect x="176" y="166" width="48" height="4" fill="#6b5227" opacity="0.6"/>
  <ellipse cx="200" cy="398" rx="120" ry="18" fill="#131007"/>
  <ellipse cx="200" cy="392" rx="110" ry="26" fill="url(#glow)" opacity="0.45"/>
  <path d="M92 392 q 6 -20 2 -30 M118 398 q -8 -18 -4 -34 M292 390 q 8 -22 4 -32 M312 398 q -6 -16 -2 -30" stroke="#3d3a1e" stroke-width="4" fill="none" stroke-linecap="round"/>
</svg>
