<svg xmlns="http://www.w3.org/2000/svg" viewBox="0 0 400 440">
  <defs>
    <radialGradient id="glow" cx="50%" cy="50%" r="50%">
      <stop offset="0%" stop-color="#f5c97d" stop-opacity="0.8"/>
      <stop offset="100%" stop-color="#e8a94f" stop-opacity="0"/>
    </radialGradient>
    <linearGradient id="shade" x1="0" y1="0" x2="1" y2="0">
      <stop offset="0%" stop-color="#c99a4e"/>
      <stop offset="45%" stop-color="#f5d491"/>
      <stop offset="100%" stop-color="#a87c38"/>
    </linearGradient>
    <linearGradient id="body" x1="0" y1="0" x2="1" y2="0">
      <stop offset="0%" stop-color="#3d2f1a"/>
      <stop offset="50%" stop-color="#8a6a35"/>
      <stop offset="100%" stop-color="#2b2113"/>
    </linearGradient>
  </defs>
  <ellipse cx="200" cy="190" rx="165" ry="150" fill="url(#glow)" opacity="0.6"/>
  <path d="M138 110 L 262 110 L 292 226 L 108 226 Z" fill="url(#shade)"/>
  <ellipse cx="200" cy="110" rx="62" ry="12" fill="#a87c38"/>
  <ellipse cx="200" cy="226" rx="92" ry="15" fill="#f7dfa6"/>
  <path d="M186 240 C 176 268, 172 292, 182 318 L 218 318 C 228 292, 224 268, 214 240 Z" fill="url(#body)"/>
  <ellipse cx="200" cy="330" rx="58" ry="15" fill="url(#body)"/>
  <ellipse cx="200" cy="326" rx="58" ry="13" fill="#57431f"/>
  <rect x="60" y="352" width="280" height="8" rx="4" fill="#2b2113"/>
  <ellipse cx="200" cy="356" rx="140" ry="10" fill="url(#glow)" opacity="0.4"/>
</svg>
